<?xml version="1.0" encoding="UTF-8"?>
<svg width="795" height="379" viewBox="0 0 795 379" xmlns="http://www.w3.org/2000/svg" xmlns:xlink="http://www.w3.org/1999/xlink" style="color: rgb(229, 231, 235); font-family: Inter, Arial, sans-serif; background-color: rgba(0, 0, 0, 0);"><rect x="0" y="0" width="795" height="379" fill="rgb(17, 24, 39)"/><g transform="translate(34.24210166931152, 0)"><line x1="60" x2="740" y1="245" y2="245" stroke="#64748b66" stroke-width="1"/><text x="52" y="249" text-anchor="end" fill="currentColor" font-size="11">0.00</text><line x1="60" x2="740" y1="199.6" y2="199.6" stroke="#64748b66" stroke-width="1"/><text x="52" y="203.6" text-anchor="end" fill="currentColor" font-size="11">0.09</text><line x1="60" x2="740" y1="154.2" y2="154.2" stroke="#64748b66" stroke-width="1"/><text x="52" y="158.2" text-anchor="end" fill="currentColor" font-size="11">0.19</text><line x1="60" x2="740" y1="108.79999999999998" y2="108.79999999999998" stroke="#64748b66" stroke-width="1"/><text x="52" y="112.79999999999998" text-anchor="end" fill="currentColor" font-size="11">0.28</text><line x1="60" x2="740" y1="63.39999999999998" y2="63.39999999999998" stroke="#64748b66" stroke-width="1"/><text x="52" y="67.39999999999998" text-anchor="end" fill="currentColor" font-size="11">0.38</text><line x1="60" x2="740" y1="18" y2="18" stroke="#64748b66" stroke-width="1"/><text x="52" y="22" text-anchor="end" fill="currentColor" font-size="11">0.47</text><rect x="117" y="84.4651363556244" width="26" height="160.5348636443756" fill="#60a5fa" style="cursor: crosshair;"/><line x1="130" x2="130" y1="82.7390687699033" y2="86.19120394134546" stroke="currentColor" stroke-opacity="0.78" stroke-width="2"/><line x1="125" x2="135" y1="82.7390687699033" y2="82.7390687699033" stroke="currentColor" stroke-opacity="0.78" stroke-width="2"/><line x1="125" x2="135" y1="86.19120394134546" y2="86.19120394134546" stroke="currentColor" stroke-opacity="0.78" stroke-width="2"/><rect x="147" y="60.4553816681439" width="26" height="184.5446183318561" fill="#f97316" style="cursor: crosshair;"/><line x1="160" x2="160" y1="52.5647686361778" y2="68.34599470011" stroke="currentColor" stroke-opacity="0.78" stroke-width="2"/><line x1="155" x2="165" y1="52.5647686361778" y2="52.5647686361778" stroke="currentColor" stroke-opacity="0.78" stroke-width="2"/><line x1="155" x2="165" y1="68.34599470011" y2="68.34599470011" stroke="currentColor" stroke-opacity="0.78" stroke-width="2"/><text x="145" y="261" transform="rotate(-28 145 261)" text-anchor="end" fill="currentColor" font-size="11">extractor/llm=gpt_oss_20b_in_process</text><rect x="287" y="140.87001244743107" width="26" height="104.12998755256893" fill="#60a5fa" style="cursor: crosshair;"/><line x1="300" x2="300" y1="136.03093447194868" y2="145.70909042291345" stroke="currentColor" stroke-opacity="0.78" stroke-width="2"/><line x1="295" x2="305" y1="136.03093447194868" y2="136.03093447194868" stroke="currentColor" stroke-opacity="0.78" stroke-width="2"/><line x1="295" x2="305" y1="145.70909042291345" y2="145.70909042291345" stroke="currentColor" stroke-opacity="0.78" stroke-width="2"/><rect x="317" y="129.66660677051976" width="26" height="115.33339322948025" fill="#f97316" style="cursor: crosshair;"/><line x1="330" x2="330" y1="123.78273790489324" y2="135.55047563614625" stroke="currentColor" stroke-opacity="0.78" stroke-width="2"/><line x1="325" x2="335" y1="123.78273790489324" y2="123.78273790489324" stroke="currentColor" stroke-opacity="0.78" stroke-width="2"/><line x1="325" x2="335" y1="135.55047563614625" y2="135.55047563614625" stroke="currentColor" stroke-opacity="0.78" stroke-width="2"/><text x="315" y="261" transform="rotate(-28 315 261)" text-anchor="end" fill="currentColor" font-size="11">extractor/llm=mistral_small_3_24b_in_process</text><rect x="457" y="104.42811504177749" width="26" height="140.5718849582225" fill="#60a5fa" style="cursor: crosshair;"/><line x1="470" x2="470" y1="103.43803020402342" y2="105.41819987953153" stroke="currentColor" stroke-opacity="0.78" stroke-width="2"/><line x1="465" x2="475" y1="103.43803020402342" y2="103.43803020402342" stroke="currentColor" stroke-opacity="0.78" stroke-width="2"/><line x1="465" x2="475" y1="105.41819987953153" y2="105.41819987953153" stroke="currentColor" stroke-opacity="0.78" stroke-width="2"/><rect x="487" y="87.23415395434421" width="26" height="157.7658460456558" fill="#f97316" style="cursor: crosshair;"/><line x1="500" x2="500" y1="81.13243296753427" y2="93.33587494115412" stroke="currentColor" stroke-opacity="0.78" stroke-width="2"/><line x1="495" x2="505" y1="81.13243296753427" y2="81.13243296753427" stroke="currentColor" stroke-opacity="0.78" stroke-width="2"/><line x1="495" x2="505" y1="93.33587494115412" y2="93.33587494115412" stroke="currentColor" stroke-opacity="0.78" stroke-width="2"/><text x="485" y="261" transform="rotate(-28 485 261)" text-anchor="end" fill="currentColor" font-size="11">extractor/llm=gemma3_27b_in_process</text><rect x="627" y="43.18653896268728" width="26" height="201.81346103731272" fill="#60a5fa" style="cursor: crosshair;"/><line x1="640" x2="640" y1="41.01362246799562" y2="45.359455457378914" stroke="currentColor" stroke-opacity="0.78" stroke-width="2"/><line x1="635" x2="645" y1="41.01362246799562" y2="41.01362246799562" stroke="currentColor" stroke-opacity="0.78" stroke-width="2"/><line x1="635" x2="645" y1="45.359455457378914" y2="45.359455457378914" stroke="currentColor" stroke-opacity="0.78" stroke-width="2"/><rect x="657" y="29.518572970166616" width="26" height="215.48142702983338" fill="#f97316" style="cursor: crosshair;"/><line x1="670" x2="670" y1="18" y2="41.037145940333204" stroke="currentColor" stroke-opacity="0.78" stroke-width="2"/><line x1="665" x2="675" y1="18" y2="18" stroke="currentColor" stroke-opacity="0.78" stroke-width="2"/><line x1="665" x2="675" y1="41.037145940333204" y2="41.037145940333204" stroke="currentColor" stroke-opacity="0.78" stroke-width="2"/><text x="655" y="261" transform="rotate(-28 655 261)" text-anchor="end" fill="currentColor" font-size="11">extractor/llm=qwen3_30b_in_process</text></g></svg>