<?xml version="1.0" encoding="UTF-8"?>
<svg width="760" height="340" viewBox="0 0 760 340" xmlns="http://www.w3.org/2000/svg" xmlns:xlink="http://www.w3.org/1999/xlink" style="color: rgb(31, 41, 55); font-family: Inter, Arial, sans-serif; background-color: rgba(0, 0, 0, 0);"><rect x="0" y="0" width="760" height="340" fill="rgb(255, 255, 255)"/><g transform="translate(0, 0)"><line x1="60" x2="740" y1="245" y2="245" stroke="#64748b66" stroke-width="1"/><text x="52" y="249" text-anchor="end" fill="currentColor" font-size="11">0.00</text><line x1="60" x2="740" y1="199.6" y2="199.6" stroke="#64748b66" stroke-width="1"/><text x="52" y="203.6" text-anchor="end" fill="currentColor" font-size="11">0.17</text><line x1="60" x2="740" y1="154.2" y2="154.2" stroke="#64748b66" stroke-width="1"/><text x="52" y="158.2" text-anchor="end" fill="currentColor" font-size="11">0.33</text><line x1="60" x2="740" y1="108.80000000000001" y2="108.80000000000001" stroke="#64748b66" stroke-width="1"/><text x="52" y="112.80000000000001" text-anchor="end" fill="currentColor" font-size="11">0.50</text><line x1="60" x2="740" y1="63.400000000000006" y2="63.400000000000006" stroke="#64748b66" stroke-width="1"/><text x="52" y="67.4" text-anchor="end" fill="currentColor" font-size="11">0.66</text><line x1="60" x2="740" y1="18" y2="18" stroke="#64748b66" stroke-width="1"/><text x="52" y="22" text-anchor="end" fill="currentColor" font-size="11">0.83</text><rect x="312" y="61.42348284960417" width="26" height="183.57651715039583" fill="#60a5fa" style="cursor: crosshair;"/><line x1="325" x2="325" y1="59.936137280278956" y2="62.91082841892941" stroke="currentColor" stroke-opacity="0.78" stroke-width="2"/><line x1="320" x2="330" y1="59.936137280278956" y2="59.936137280278956" stroke="currentColor" stroke-opacity="0.78" stroke-width="2"/><line x1="320" x2="330" y1="62.91082841892941" y2="62.91082841892941" stroke="currentColor" stroke-opacity="0.78" stroke-width="2"/><rect x="342" y="71.40589270008792" width="26" height="173.59410729991208" fill="#f97316" style="cursor: crosshair;"/><line x1="355" x2="355" y1="67.70297027532536" y2="75.10881512485051" stroke="currentColor" stroke-opacity="0.78" stroke-width="2"/><line x1="350" x2="360" y1="67.70297027532536" y2="67.70297027532536" stroke="currentColor" stroke-opacity="0.78" stroke-width="2"/><line x1="350" x2="360" y1="75.10881512485051" y2="75.10881512485051" stroke="currentColor" stroke-opacity="0.78" stroke-width="2"/><rect x="372" y="34.37115215479329" width="26" height="210.6288478452067" fill="#22c55e" style="cursor: crosshair;"/><line x1="385" x2="385" y1="32.7802178182649" y2="35.96208649132171" stroke="currentColor" stroke-opacity="0.78" stroke-width="2"/><line x1="380" x2="390" y1="32.7802178182649" y2="32.7802178182649" stroke="currentColor" stroke-opacity="0.78" stroke-width="2"/><line x1="380" x2="390" y1="35.96208649132171" y2="35.96208649132171" stroke="currentColor" stroke-opacity="0.78" stroke-width="2"/><rect x="402" y="60.62489006156551" width="26" height="184.3751099384345" fill="#a78bfa" style="cursor: crosshair;"/><line x1="415" x2="415" y1="57.471333190186954" y2="63.778446932944064" stroke="currentColor" stroke-opacity="0.78" stroke-width="2"/><line x1="410" x2="420" y1="57.471333190186954" y2="57.471333190186954" stroke="currentColor" stroke-opacity="0.78" stroke-width="2"/><line x1="410" x2="420" y1="63.778446932944064" y2="63.778446932944064" stroke="currentColor" stroke-opacity="0.78" stroke-width="2"/><rect x="432" y="84.03364116094986" width="26" height="160.96635883905014" fill="#f43f5e" style="cursor: crosshair;"/><line x1="445" x2="445" y1="83.28496042216358" y2="84.78232189973613" stroke="currentColor" stroke-opacity="0.78" stroke-width="2"/><line x1="440" x2="450" y1="83.28496042216358" y2="83.28496042216358" stroke="currentColor" stroke-opacity="0.78" stroke-width="2"/><line x1="440" x2="450" y1="84.78232189973613" y2="84.78232189973613" stroke="currentColor" stroke-opacity="0.78" stroke-width="2"/><rect x="462" y="18.898416886543515" width="26" height="226.10158311345648" fill="#14b8a6" style="cursor: crosshair;"/><line x1="475" x2="475" y1="18" y2="19.79683377308706" stroke="currentColor" stroke-opacity="0.78" stroke-width="2"/><line x1="470" x2="480" y1="18" y2="18" stroke="currentColor" stroke-opacity="0.78" stroke-width="2"/><line x1="470" x2="480" y1="19.79683377308706" y2="19.79683377308706" stroke="currentColor" stroke-opacity="0.78" stroke-width="2"/><text x="400" y="261" transform="rotate(-28 400 261)" text-anchor="end" fill="currentColor" font-size="11">all</text></g></svg>