<?xml version="1.0" encoding="UTF-8"?>
<svg width="897" height="378" viewBox="0 0 897 378" xmlns="http://www.w3.org/2000/svg" xmlns:xlink="http://www.w3.org/1999/xlink" style="color: rgb(31, 41, 55); font-family: Inter, Arial, sans-serif; background-color: rgba(0, 0, 0, 0);"><rect x="0" y="0" width="897" height="378" fill="rgb(255, 255, 255)"/><g transform="translate(36.058610916137695, 0)"><line x1="60" x2="840" y1="245" y2="245" stroke="#64748b66" stroke-width="1"/><text x="52" y="249" text-anchor="end" fill="currentColor" font-size="11">0.00</text><line x1="60" x2="840" y1="199.6" y2="199.6" stroke="#64748b66" stroke-width="1"/><text x="52" y="203.6" text-anchor="end" fill="currentColor" font-size="11">0.14</text><line x1="60" x2="840" y1="154.2" y2="154.2" stroke="#64748b66" stroke-width="1"/><text x="52" y="158.2" text-anchor="end" fill="currentColor" font-size="11">0.27</text><line x1="60" x2="840" y1="108.80000000000001" y2="108.80000000000001" stroke="#64748b66" stroke-width="1"/><text x="52" y="112.80000000000001" text-anchor="end" fill="currentColor" font-size="11">0.41</text><line x1="60" x2="840" y1="63.400000000000006" y2="63.400000000000006" stroke="#64748b66" stroke-width="1"/><text x="52" y="67.4" text-anchor="end" fill="currentColor" font-size="11">0.54</text><line x1="60" x2="840" y1="18" y2="18" stroke="#64748b66" stroke-width="1"/><text x="52" y="22" text-anchor="end" fill="currentColor" font-size="11">0.68</text><rect x="110" y="32.83865488599443" width="26" height="212.16134511400557" fill="#60a5fa" style="cursor: crosshair;"/><line x1="123" x2="123" y1="29.853057076534924" y2="35.824252695453964" stroke="currentColor" stroke-opacity="0.78" stroke-width="2"/><line x1="118" x2="128" y1="29.853057076534924" y2="29.853057076534924" stroke="currentColor" stroke-opacity="0.78" stroke-width="2"/><line x1="118" x2="128" y1="35.824252695453964" y2="35.824252695453964" stroke="currentColor" stroke-opacity="0.78" stroke-width="2"/><rect x="140" y="107.53198324552733" width="26" height="137.46801675447267" fill="#f97316" style="cursor: crosshair;"/><line x1="153" x2="153" y1="97.73953481003258" y2="117.32443168102203" stroke="currentColor" stroke-opacity="0.78" stroke-width="2"/><line x1="148" x2="158" y1="97.73953481003258" y2="97.73953481003258" stroke="currentColor" stroke-opacity="0.78" stroke-width="2"/><line x1="148" x2="158" y1="117.32443168102203" y2="117.32443168102203" stroke="currentColor" stroke-opacity="0.78" stroke-width="2"/><text x="138" y="261" transform="rotate(-28 138 261)" text-anchor="end" fill="currentColor" font-size="11">extractor/llm=qwen3_30b_in_process</text><rect x="266" y="41.15568572403754" width="26" height="203.84431427596246" fill="#60a5fa" style="cursor: crosshair;"/><line x1="279" x2="279" y1="35.16228266753839" y2="47.149088780536715" stroke="currentColor" stroke-opacity="0.78" stroke-width="2"/><line x1="274" x2="284" y1="35.16228266753839" y2="35.16228266753839" stroke="currentColor" stroke-opacity="0.78" stroke-width="2"/><line x1="274" x2="284" y1="47.149088780536715" y2="47.149088780536715" stroke="currentColor" stroke-opacity="0.78" stroke-width="2"/><rect x="296" y="106.18542808132659" width="26" height="138.8145719186734" fill="#f97316" style="cursor: crosshair;"/><line x1="309" x2="309" y1="100.72506503305269" y2="111.64579112960052" stroke="currentColor" stroke-opacity="0.78" stroke-width="2"/><line x1="304" x2="314" y1="100.72506503305269" y2="100.72506503305269" stroke="currentColor" stroke-opacity="0.78" stroke-width="2"/><line x1="304" x2="314" y1="111.64579112960052" y2="111.64579112960052" stroke="currentColor" stroke-opacity="0.78" stroke-width="2"/><text x="294" y="261" transform="rotate(-28 294 261)" text-anchor="end" fill="currentColor" font-size="11">extractor/llm=gpt_oss_20b_in_process</text><rect x="422" y="53.910690748436025" width="26" height="191.08930925156398" fill="#60a5fa" style="cursor: crosshair;"/><line x1="435" x2="435" y1="48.02421310670542" y2="59.79716839016663" stroke="currentColor" stroke-opacity="0.78" stroke-width="2"/><line x1="430" x2="440" y1="48.02421310670542" y2="48.02421310670542" stroke="currentColor" stroke-opacity="0.78" stroke-width="2"/><line x1="430" x2="440" y1="59.79716839016663" y2="59.79716839016663" stroke="currentColor" stroke-opacity="0.78" stroke-width="2"/><rect x="452" y="132.9986404339939" width="26" height="112.00135956600612" fill="#f97316" style="cursor: crosshair;"/><line x1="465" x2="465" y1="129.31572171672158" y2="136.68155915126619" stroke="currentColor" stroke-opacity="0.78" stroke-width="2"/><line x1="460" x2="470" y1="129.31572171672158" y2="129.31572171672158" stroke="currentColor" stroke-opacity="0.78" stroke-width="2"/><line x1="460" x2="470" y1="136.68155915126619" y2="136.68155915126619" stroke="currentColor" stroke-opacity="0.78" stroke-width="2"/><text x="450" y="261" transform="rotate(-28 450 261)" text-anchor="end" fill="currentColor" font-size="11">extractor/llm=mistral_small_3_24b_in_process</text><rect x="578" y="50.77831007283248" width="26" height="194.22168992716752" fill="#60a5fa" style="cursor: crosshair;"/><line x1="591" x2="591" y1="46.11998124767001" y2="55.43663889799495" stroke="currentColor" stroke-opacity="0.78" stroke-width="2"/><line x1="586" x2="596" y1="46.11998124767001" y2="46.11998124767001" stroke="currentColor" stroke-opacity="0.78" stroke-width="2"/><line x1="586" x2="596" y1="55.43663889799495" y2="55.43663889799495" stroke="currentColor" stroke-opacity="0.78" stroke-width="2"/><rect x="608" y="113.54080243360329" width="26" height="131.4591975663967" fill="#f97316" style="cursor: crosshair;"/><line x1="621" x2="621" y1="109.4002951612386" y2="117.68130970596795" stroke="currentColor" stroke-opacity="0.78" stroke-width="2"/><line x1="616" x2="626" y1="109.4002951612386" y2="109.4002951612386" stroke="currentColor" stroke-opacity="0.78" stroke-width="2"/><line x1="616" x2="626" y1="117.68130970596795" y2="117.68130970596795" stroke="currentColor" stroke-opacity="0.78" stroke-width="2"/><text x="606" y="261" transform="rotate(-28 606 261)" text-anchor="end" fill="currentColor" font-size="11">extractor/llm=gemma3_27b_in_process</text><rect x="734" y="18" width="26" height="227" fill="#60a5fa" style="cursor: crosshair;"/><line x1="747" x2="747" y1="18" y2="18" stroke="currentColor" stroke-opacity="0.78" stroke-width="2"/><line x1="742" x2="752" y1="18" y2="18" stroke="currentColor" stroke-opacity="0.78" stroke-width="2"/><line x1="742" x2="752" y1="18" y2="18" stroke="currentColor" stroke-opacity="0.78" stroke-width="2"/><rect x="764" y="120.78738002858893" width="26" height="124.21261997141107" fill="#f97316" style="cursor: crosshair;"/><line x1="777" x2="777" y1="120.78738002858893" y2="120.78738002858893" stroke="currentColor" stroke-opacity="0.78" stroke-width="2"/><line x1="772" x2="782" y1="120.78738002858893" y2="120.78738002858893" stroke="currentColor" stroke-opacity="0.78" stroke-width="2"/><line x1="772" x2="782" y1="120.78738002858893" y2="120.78738002858893" stroke="currentColor" stroke-opacity="0.78" stroke-width="2"/><text x="762" y="261" transform="rotate(-28 762 261)" text-anchor="end" fill="currentColor" font-size="11">extractor/llm=gpt_5</text></g></svg>