<?xml version="1.0" encoding="UTF-8"?>
<svg width="760" height="340" viewBox="0 0 760 340" xmlns="http://www.w3.org/2000/svg" xmlns:xlink="http://www.w3.org/1999/xlink" style="color: rgb(31, 41, 55); font-family: Inter, Arial, sans-serif; background-color: rgba(0, 0, 0, 0);"><rect x="0" y="0" width="760" height="340" fill="rgb(255, 255, 255)"/><g transform="translate(0, 0)"><line x1="60" x2="740" y1="245" y2="245" stroke="#64748b66" stroke-width="1"/><text x="52" y="249" text-anchor="end" fill="currentColor" font-size="11">0.00</text><line x1="60" x2="740" y1="199.6" y2="199.6" stroke="#64748b66" stroke-width="1"/><text x="52" y="203.6" text-anchor="end" fill="currentColor" font-size="11">0.04</text><line x1="60" x2="740" y1="154.2" y2="154.2" stroke="#64748b66" stroke-width="1"/><text x="52" y="158.2" text-anchor="end" fill="currentColor" font-size="11">0.09</text><line x1="60" x2="740" y1="108.80000000000001" y2="108.80000000000001" stroke="#64748b66" stroke-width="1"/><text x="52" y="112.80000000000001" text-anchor="end" fill="currentColor" font-size="11">0.13</text><line x1="60" x2="740" y1="63.39999999999998" y2="63.39999999999998" stroke="#64748b66" stroke-width="1"/><text x="52" y="67.39999999999998" text-anchor="end" fill="currentColor" font-size="11">0.17</text><line x1="60" x2="740" y1="17.999999999999943" y2="17.999999999999943" stroke="#64748b66" stroke-width="1"/><text x="52" y="21.999999999999943" text-anchor="end" fill="currentColor" font-size="11">0.21</text><rect x="327" y="139.98695553733418" width="26" height="105.01304446266582" fill="#60a5fa" style="cursor: crosshair;"/><line x1="340" x2="340" y1="137.7359387944105" y2="142.2379722802579" stroke="currentColor" stroke-opacity="0.78" stroke-width="2"/><line x1="335" x2="345" y1="137.7359387944105" y2="137.7359387944105" stroke="currentColor" stroke-opacity="0.78" stroke-width="2"/><line x1="335" x2="345" y1="142.2379722802579" y2="142.2379722802579" stroke="currentColor" stroke-opacity="0.78" stroke-width="2"/><rect x="357" y="194.71678647139225" width="26" height="50.28321352860773" fill="#f97316" style="cursor: crosshair;"/><line x1="370" x2="370" y1="193.24930840115996" y2="196.1842645416246" stroke="currentColor" stroke-opacity="0.78" stroke-width="2"/><line x1="365" x2="375" y1="193.24930840115996" y2="193.24930840115996" stroke="currentColor" stroke-opacity="0.78" stroke-width="2"/><line x1="365" x2="375" y1="196.1842645416246" y2="196.1842645416246" stroke="currentColor" stroke-opacity="0.78" stroke-width="2"/><rect x="387" y="177.02273887479737" width="26" height="67.97726112520265" fill="#22c55e" style="cursor: crosshair;"/><line x1="400" x2="400" y1="173.73311551276728" y2="180.31236223682743" stroke="currentColor" stroke-opacity="0.78" stroke-width="2"/><line x1="395" x2="405" y1="173.73311551276728" y2="173.73311551276728" stroke="currentColor" stroke-opacity="0.78" stroke-width="2"/><line x1="395" x2="405" y1="180.31236223682743" y2="180.31236223682743" stroke="currentColor" stroke-opacity="0.78" stroke-width="2"/><rect x="417" y="22.13702839777767" width="26" height="222.86297160222233" fill="#a78bfa" style="cursor: crosshair;"/><line x1="430" x2="430" y1="18" y2="26.27405679555531" stroke="currentColor" stroke-opacity="0.78" stroke-width="2"/><line x1="425" x2="435" y1="18" y2="18" stroke="currentColor" stroke-opacity="0.78" stroke-width="2"/><line x1="425" x2="435" y1="26.27405679555531" y2="26.27405679555531" stroke="currentColor" stroke-opacity="0.78" stroke-width="2"/><rect x="447" y="101.01978752511644" width="26" height="143.98021247488356" fill="#f43f5e" style="cursor: crosshair;"/><line x1="460" x2="460" y1="101.01978752511644" y2="101.01978752511644" stroke="currentColor" stroke-opacity="0.78" stroke-width="2"/><line x1="455" x2="465" y1="101.01978752511644" y2="101.01978752511644" stroke="currentColor" stroke-opacity="0.78" stroke-width="2"/><line x1="455" x2="465" y1="101.01978752511644" y2="101.01978752511644" stroke="currentColor" stroke-opacity="0.78" stroke-width="2"/><text x="400" y="261" transform="rotate(-28 400 261)" text-anchor="end" fill="currentColor" font-size="11">all</text></g></svg>