<?xml version="1.0" encoding="UTF-8"?>
<svg width="760" height="340" viewBox="0 0 760 340" xmlns="http://www.w3.org/2000/svg" xmlns:xlink="http://www.w3.org/1999/xlink" style="color: rgb(31, 41, 55); font-family: Inter, Arial, sans-serif; background-color: rgba(0, 0, 0, 0);"><rect x="0" y="0" width="760" height="340" fill="rgb(255, 255, 255)"/><g transform="translate(0, 0)"><line x1="60" x2="740" y1="245" y2="245" stroke="#64748b66" stroke-width="1"/><text x="52" y="249" text-anchor="end" fill="currentColor" font-size="11">0.00</text><line x1="60" x2="740" y1="199.6" y2="199.6" stroke="#64748b66" stroke-width="1"/><text x="52" y="203.6" text-anchor="end" fill="currentColor" font-size="11">0.11</text><line x1="60" x2="740" y1="154.2" y2="154.2" stroke="#64748b66" stroke-width="1"/><text x="52" y="158.2" text-anchor="end" fill="currentColor" font-size="11">0.23</text><line x1="60" x2="740" y1="108.80000000000004" y2="108.80000000000004" stroke="#64748b66" stroke-width="1"/><text x="52" y="112.80000000000004" text-anchor="end" fill="currentColor" font-size="11">0.34</text><line x1="60" x2="740" y1="63.400000000000006" y2="63.400000000000006" stroke="#64748b66" stroke-width="1"/><text x="52" y="67.4" text-anchor="end" fill="currentColor" font-size="11">0.46</text><line x1="60" x2="740" y1="18" y2="18" stroke="#64748b66" stroke-width="1"/><text x="52" y="22" text-anchor="end" fill="currentColor" font-size="11">0.57</text><rect x="327" y="66.36747094592363" width="26" height="178.63252905407637" fill="#60a5fa" style="cursor: crosshair;"/><line x1="340" x2="340" y1="59.615024223001114" y2="73.11991766884611" stroke="currentColor" stroke-opacity="0.78" stroke-width="2"/><line x1="335" x2="345" y1="59.615024223001114" y2="59.615024223001114" stroke="currentColor" stroke-opacity="0.78" stroke-width="2"/><line x1="335" x2="345" y1="73.11991766884611" y2="73.11991766884611" stroke="currentColor" stroke-opacity="0.78" stroke-width="2"/><rect x="357" y="75.74016537160048" width="26" height="169.25983462839952" fill="#f97316" style="cursor: crosshair;"/><line x1="370" x2="370" y1="70.28222766516541" y2="81.19810307803553" stroke="currentColor" stroke-opacity="0.78" stroke-width="2"/><line x1="365" x2="375" y1="70.28222766516541" y2="70.28222766516541" stroke="currentColor" stroke-opacity="0.78" stroke-width="2"/><line x1="365" x2="375" y1="81.19810307803553" y2="81.19810307803553" stroke="currentColor" stroke-opacity="0.78" stroke-width="2"/><rect x="387" y="25.017348479702235" width="26" height="219.98265152029776" fill="#22c55e" style="cursor: crosshair;"/><line x1="400" x2="400" y1="18" y2="32.0346969594045" stroke="currentColor" stroke-opacity="0.78" stroke-width="2"/><line x1="395" x2="405" y1="18" y2="18" stroke="currentColor" stroke-opacity="0.78" stroke-width="2"/><line x1="395" x2="405" y1="32.0346969594045" y2="32.0346969594045" stroke="currentColor" stroke-opacity="0.78" stroke-width="2"/><rect x="417" y="75.18883040538418" width="26" height="169.81116959461582" fill="#a78bfa" style="cursor: crosshair;"/><line x1="430" x2="430" y1="73.62941963211702" y2="76.74824117865134" stroke="currentColor" stroke-opacity="0.78" stroke-width="2"/><line x1="425" x2="435" y1="73.62941963211702" y2="73.62941963211702" stroke="currentColor" stroke-opacity="0.78" stroke-width="2"/><line x1="425" x2="435" y1="76.74824117865134" y2="76.74824117865134" stroke="currentColor" stroke-opacity="0.78" stroke-width="2"/><rect x="447" y="29.979363175648842" width="26" height="215.02063682435116" fill="#f43f5e" style="cursor: crosshair;"/><line x1="460" x2="460" y1="29.979363175648842" y2="29.979363175648842" stroke="currentColor" stroke-opacity="0.78" stroke-width="2"/><line x1="455" x2="465" y1="29.979363175648842" y2="29.979363175648842" stroke="currentColor" stroke-opacity="0.78" stroke-width="2"/><line x1="455" x2="465" y1="29.979363175648842" y2="29.979363175648842" stroke="currentColor" stroke-opacity="0.78" stroke-width="2"/><text x="400" y="261" transform="rotate(-28 400 261)" text-anchor="end" fill="currentColor" font-size="11">all</text></g></svg>