<?xml version="1.0" encoding="UTF-8"?>
<svg width="760" height="340" viewBox="0 0 760 340" xmlns="http://www.w3.org/2000/svg" xmlns:xlink="http://www.w3.org/1999/xlink" style="color: rgb(31, 41, 55); font-family: Inter, Arial, sans-serif; background-color: rgba(0, 0, 0, 0);"><rect x="0" y="0" width="760" height="340" fill="rgb(255, 255, 255)"/><g transform="translate(0, 0)"><line x1="60" x2="740" y1="245" y2="245" stroke="#64748b66" stroke-width="1"/><text x="52" y="249" text-anchor="end" fill="currentColor" font-size="11">0.00</text><line x1="60" x2="740" y1="199.6" y2="199.6" stroke="#64748b66" stroke-width="1"/><text x="52" y="203.6" text-anchor="end" fill="currentColor" font-size="11">0.10</text><line x1="60" x2="740" y1="154.2" y2="154.2" stroke="#64748b66" stroke-width="1"/><text x="52" y="158.2" text-anchor="end" fill="currentColor" font-size="11">0.19</text><line x1="60" x2="740" y1="108.80000000000001" y2="108.80000000000001" stroke="#64748b66" stroke-width="1"/><text x="52" y="112.80000000000001" text-anchor="end" fill="currentColor" font-size="11">0.29</text><line x1="60" x2="740" y1="63.400000000000006" y2="63.400000000000006" stroke="#64748b66" stroke-width="1"/><text x="52" y="67.4" text-anchor="end" fill="currentColor" font-size="11">0.39</text><line x1="60" x2="740" y1="18" y2="18" stroke="#64748b66" stroke-width="1"/><text x="52" y="22" text-anchor="end" fill="currentColor" font-size="11">0.49</text><rect x="327" y="47.631701631701645" width="26" height="197.36829836829835" fill="#60a5fa" style="cursor: crosshair;"/><line x1="340" x2="340" y1="40.2616686738443" y2="55.00173458955899" stroke="currentColor" stroke-opacity="0.78" stroke-width="2"/><line x1="335" x2="345" y1="40.2616686738443" y2="40.2616686738443" stroke="currentColor" stroke-opacity="0.78" stroke-width="2"/><line x1="335" x2="345" y1="55.00173458955899" y2="55.00173458955899" stroke="currentColor" stroke-opacity="0.78" stroke-width="2"/><rect x="357" y="43.398601398601386" width="26" height="201.6013986013986" fill="#f97316" style="cursor: crosshair;"/><line x1="370" x2="370" y1="38.72538527585917" y2="48.07181752134363" stroke="currentColor" stroke-opacity="0.78" stroke-width="2"/><line x1="365" x2="375" y1="38.72538527585917" y2="38.72538527585917" stroke="currentColor" stroke-opacity="0.78" stroke-width="2"/><line x1="365" x2="375" y1="48.07181752134363" y2="48.07181752134363" stroke="currentColor" stroke-opacity="0.78" stroke-width="2"/><rect x="387" y="32.81585081585078" width="26" height="212.18414918414922" fill="#22c55e" style="cursor: crosshair;"/><line x1="400" x2="400" y1="31.31922387571703" y2="34.31247775598456" stroke="currentColor" stroke-opacity="0.78" stroke-width="2"/><line x1="395" x2="405" y1="31.31922387571703" y2="31.31922387571703" stroke="currentColor" stroke-opacity="0.78" stroke-width="2"/><line x1="395" x2="405" y1="34.31247775598456" y2="34.31247775598456" stroke="currentColor" stroke-opacity="0.78" stroke-width="2"/><rect x="417" y="68.79720279720277" width="26" height="176.20279720279723" fill="#a78bfa" style="cursor: crosshair;"/><line x1="430" x2="430" y1="61.938796556929645" y2="75.6556090374759" stroke="currentColor" stroke-opacity="0.78" stroke-width="2"/><line x1="425" x2="435" y1="61.938796556929645" y2="61.938796556929645" stroke="currentColor" stroke-opacity="0.78" stroke-width="2"/><line x1="425" x2="435" y1="75.6556090374759" y2="75.6556090374759" stroke="currentColor" stroke-opacity="0.78" stroke-width="2"/><rect x="447" y="18" width="26" height="227" fill="#f43f5e" style="cursor: crosshair;"/><line x1="460" x2="460" y1="18" y2="18" stroke="currentColor" stroke-opacity="0.78" stroke-width="2"/><line x1="455" x2="465" y1="18" y2="18" stroke="currentColor" stroke-opacity="0.78" stroke-width="2"/><line x1="455" x2="465" y1="18" y2="18" stroke="currentColor" stroke-opacity="0.78" stroke-width="2"/><text x="400" y="261" transform="rotate(-28 400 261)" text-anchor="end" fill="currentColor" font-size="11">all</text></g></svg>