<?xml version="1.0" encoding="UTF-8"?>
<svg width="795" height="379" viewBox="0 0 795 379" xmlns="http://www.w3.org/2000/svg" xmlns:xlink="http://www.w3.org/1999/xlink" style="color: rgb(229, 231, 235); font-family: Inter, Arial, sans-serif; background-color: rgba(0, 0, 0, 0);"><rect x="0" y="0" width="795" height="379" fill="rgb(17, 24, 39)"/><g transform="translate(34.24210166931152, 0)"><line x1="60" x2="740" y1="245" y2="245" stroke="#64748b66" stroke-width="1"/><text x="52" y="249" text-anchor="end" fill="currentColor" font-size="11">0.00</text><line x1="60" x2="740" y1="199.6" y2="199.6" stroke="#64748b66" stroke-width="1"/><text x="52" y="203.6" text-anchor="end" fill="currentColor" font-size="11">0.13</text><line x1="60" x2="740" y1="154.2" y2="154.2" stroke="#64748b66" stroke-width="1"/><text x="52" y="158.2" text-anchor="end" fill="currentColor" font-size="11">0.25</text><line x1="60" x2="740" y1="108.80000000000001" y2="108.80000000000001" stroke="#64748b66" stroke-width="1"/><text x="52" y="112.80000000000001" text-anchor="end" fill="currentColor" font-size="11">0.38</text><line x1="60" x2="740" y1="63.39999999999998" y2="63.39999999999998" stroke="#64748b66" stroke-width="1"/><text x="52" y="67.39999999999998" text-anchor="end" fill="currentColor" font-size="11">0.50</text><line x1="60" x2="740" y1="18" y2="18" stroke="#64748b66" stroke-width="1"/><text x="52" y="22" text-anchor="end" fill="currentColor" font-size="11">0.63</text><rect x="117" y="63.6996451571635" width="26" height="181.3003548428365" fill="#60a5fa" style="cursor: crosshair;"/><line x1="130" x2="130" y1="56.29808916465552" y2="71.10120114967145" stroke="currentColor" stroke-opacity="0.78" stroke-width="2"/><line x1="125" x2="135" y1="56.29808916465552" y2="56.29808916465552" stroke="currentColor" stroke-opacity="0.78" stroke-width="2"/><line x1="125" x2="135" y1="71.10120114967145" y2="71.10120114967145" stroke="currentColor" stroke-opacity="0.78" stroke-width="2"/><rect x="147" y="54.88488864103172" width="26" height="190.11511135896828" fill="#f97316" style="cursor: crosshair;"/><line x1="160" x2="160" y1="50.10935864271235" y2="59.66041863935112" stroke="currentColor" stroke-opacity="0.78" stroke-width="2"/><line x1="155" x2="165" y1="50.10935864271235" y2="50.10935864271235" stroke="currentColor" stroke-opacity="0.78" stroke-width="2"/><line x1="155" x2="165" y1="59.66041863935112" y2="59.66041863935112" stroke="currentColor" stroke-opacity="0.78" stroke-width="2"/><text x="145" y="261" transform="rotate(-28 145 261)" text-anchor="end" fill="currentColor" font-size="11">extractor/llm=gpt_oss_20b_in_process</text><rect x="287" y="96.93804354501682" width="26" height="148.06195645498318" fill="#60a5fa" style="cursor: crosshair;"/><line x1="300" x2="300" y1="95.86972095884269" y2="98.00636613119099" stroke="currentColor" stroke-opacity="0.78" stroke-width="2"/><line x1="295" x2="305" y1="95.86972095884269" y2="95.86972095884269" stroke="currentColor" stroke-opacity="0.78" stroke-width="2"/><line x1="295" x2="305" y1="98.00636613119099" y2="98.00636613119099" stroke="currentColor" stroke-opacity="0.78" stroke-width="2"/><rect x="317" y="88.78138136394853" width="26" height="156.21861863605147" fill="#f97316" style="cursor: crosshair;"/><line x1="330" x2="330" y1="85.0240144544592" y2="92.53874827343785" stroke="currentColor" stroke-opacity="0.78" stroke-width="2"/><line x1="325" x2="335" y1="85.0240144544592" y2="85.0240144544592" stroke="currentColor" stroke-opacity="0.78" stroke-width="2"/><line x1="325" x2="335" y1="92.53874827343785" y2="92.53874827343785" stroke="currentColor" stroke-opacity="0.78" stroke-width="2"/><text x="315" y="261" transform="rotate(-28 315 261)" text-anchor="end" fill="currentColor" font-size="11">extractor/llm=mistral_small_3_24b_in_process</text><rect x="457" y="46.325027818058345" width="26" height="198.67497218194165" fill="#60a5fa" style="cursor: crosshair;"/><line x1="470" x2="470" y1="40.671996052038025" y2="51.978059584078665" stroke="currentColor" stroke-opacity="0.78" stroke-width="2"/><line x1="465" x2="475" y1="40.671996052038025" y2="40.671996052038025" stroke="currentColor" stroke-opacity="0.78" stroke-width="2"/><line x1="465" x2="475" y1="51.978059584078665" y2="51.978059584078665" stroke="currentColor" stroke-opacity="0.78" stroke-width="2"/><rect x="487" y="31.30471979030699" width="26" height="213.695280209693" fill="#f97316" style="cursor: crosshair;"/><line x1="500" x2="500" y1="18" y2="44.60943958061398" stroke="currentColor" stroke-opacity="0.78" stroke-width="2"/><line x1="495" x2="505" y1="18" y2="18" stroke="currentColor" stroke-opacity="0.78" stroke-width="2"/><line x1="495" x2="505" y1="44.60943958061398" y2="44.60943958061398" stroke="currentColor" stroke-opacity="0.78" stroke-width="2"/><text x="485" y="261" transform="rotate(-28 485 261)" text-anchor="end" fill="currentColor" font-size="11">extractor/llm=gemma3_27b_in_process</text><rect x="627" y="91.65011652876748" width="26" height="153.34988347123252" fill="#60a5fa" style="cursor: crosshair;"/><line x1="640" x2="640" y1="86.99340633653239" y2="96.30682672100255" stroke="currentColor" stroke-opacity="0.78" stroke-width="2"/><line x1="635" x2="645" y1="86.99340633653239" y2="86.99340633653239" stroke="currentColor" stroke-opacity="0.78" stroke-width="2"/><line x1="635" x2="645" y1="96.30682672100255" y2="96.30682672100255" stroke="currentColor" stroke-opacity="0.78" stroke-width="2"/><rect x="657" y="82.14945887468218" width="26" height="162.85054112531782" fill="#f97316" style="cursor: crosshair;"/><line x1="670" x2="670" y1="76.93892846972244" y2="87.35998927964195" stroke="currentColor" stroke-opacity="0.78" stroke-width="2"/><line x1="665" x2="675" y1="76.93892846972244" y2="76.93892846972244" stroke="currentColor" stroke-opacity="0.78" stroke-width="2"/><line x1="665" x2="675" y1="87.35998927964195" y2="87.35998927964195" stroke="currentColor" stroke-opacity="0.78" stroke-width="2"/><text x="655" y="261" transform="rotate(-28 655 261)" text-anchor="end" fill="currentColor" font-size="11">extractor/llm=qwen3_30b_in_process</text></g></svg>