<?xml version="1.0" encoding="UTF-8"?>
<svg width="760" height="340" viewBox="0 0 760 340" xmlns="http://www.w3.org/2000/svg" xmlns:xlink="http://www.w3.org/1999/xlink" style="color: rgb(31, 41, 55); font-family: Inter, Arial, sans-serif; background-color: rgba(0, 0, 0, 0);"><rect x="0" y="0" width="760" height="340" fill="rgb(255, 255, 255)"/><g transform="translate(0, 0)"><line x1="60" x2="740" y1="245" y2="245" stroke="#64748b66" stroke-width="1"/><text x="52" y="249" text-anchor="end" fill="currentColor" font-size="11">0.00</text><line x1="60" x2="740" y1="199.6" y2="199.6" stroke="#64748b66" stroke-width="1"/><text x="52" y="203.6" text-anchor="end" fill="currentColor" font-size="11">12.83</text><line x1="60" x2="740" y1="154.2" y2="154.2" stroke="#64748b66" stroke-width="1"/><text x="52" y="158.2" text-anchor="end" fill="currentColor" font-size="11">25.66</text><line x1="60" x2="740" y1="108.79999999999998" y2="108.79999999999998" stroke="#64748b66" stroke-width="1"/><text x="52" y="112.79999999999998" text-anchor="end" fill="currentColor" font-size="11">38.50</text><line x1="60" x2="740" y1="63.39999999999998" y2="63.39999999999998" stroke="#64748b66" stroke-width="1"/><text x="52" y="67.39999999999998" text-anchor="end" fill="currentColor" font-size="11">51.33</text><line x1="60" x2="740" y1="18" y2="18" stroke="#64748b66" stroke-width="1"/><text x="52" y="22" text-anchor="end" fill="currentColor" font-size="11">64.16</text><rect x="342" y="242.64135400237615" width="26" height="2.358645997623848" fill="#60a5fa" style="cursor: crosshair;"/><line x1="355" x2="355" y1="239.3057248436995" y2="245.97698316105283" stroke="currentColor" stroke-opacity="0.78" stroke-width="2"/><line x1="350" x2="360" y1="239.3057248436995" y2="239.3057248436995" stroke="currentColor" stroke-opacity="0.78" stroke-width="2"/><line x1="350" x2="360" y1="245.97698316105283" y2="245.97698316105283" stroke="currentColor" stroke-opacity="0.78" stroke-width="2"/><rect x="372" y="26.825245219794027" width="26" height="218.17475478020597" fill="#f97316" style="cursor: crosshair;"/><line x1="385" x2="385" y1="18" y2="35.65049043958814" stroke="currentColor" stroke-opacity="0.78" stroke-width="2"/><line x1="380" x2="390" y1="18" y2="18" stroke="currentColor" stroke-opacity="0.78" stroke-width="2"/><line x1="380" x2="390" y1="35.65049043958814" y2="35.65049043958814" stroke="currentColor" stroke-opacity="0.78" stroke-width="2"/><rect x="402" y="222.59286302257345" width="26" height="22.407136977426557" fill="#22c55e" style="cursor: crosshair;"/><line x1="415" x2="415" y1="220.9250484432351" y2="224.26067760191177" stroke="currentColor" stroke-opacity="0.78" stroke-width="2"/><line x1="410" x2="420" y1="220.9250484432351" y2="220.9250484432351" stroke="currentColor" stroke-opacity="0.78" stroke-width="2"/><line x1="410" x2="420" y1="224.26067760191177" y2="224.26067760191177" stroke="currentColor" stroke-opacity="0.78" stroke-width="2"/><rect x="432" y="196.64775704871113" width="26" height="48.352242951288886" fill="#a78bfa" style="cursor: crosshair;"/><line x1="445" x2="445" y1="192.2351344388141" y2="201.06037965860816" stroke="currentColor" stroke-opacity="0.78" stroke-width="2"/><line x1="440" x2="450" y1="192.2351344388141" y2="192.2351344388141" stroke="currentColor" stroke-opacity="0.78" stroke-width="2"/><line x1="440" x2="450" y1="201.06037965860816" y2="201.06037965860816" stroke="currentColor" stroke-opacity="0.78" stroke-width="2"/><text x="400" y="261" transform="rotate(-28 400 261)" text-anchor="end" fill="currentColor" font-size="11">all</text></g></svg>