<?xml version="1.0" encoding="UTF-8"?>
<svg width="795" height="378" viewBox="0 0 795 378" xmlns="http://www.w3.org/2000/svg" xmlns:xlink="http://www.w3.org/1999/xlink" style="color: rgb(31, 41, 55); font-family: Inter, Arial, sans-serif; background-color: rgba(0, 0, 0, 0);"><rect x="0" y="0" width="795" height="378" fill="rgb(255, 255, 255)"/><g transform="translate(34.24805450439453, 0)"><line x1="60" x2="740" y1="245" y2="245" stroke="#64748b66" stroke-width="1"/><text x="52" y="249" text-anchor="end" fill="currentColor" font-size="11">0.00</text><line x1="60" x2="740" y1="199.6" y2="199.6" stroke="#64748b66" stroke-width="1"/><text x="52" y="203.6" text-anchor="end" fill="currentColor" font-size="11">0.18</text><line x1="60" x2="740" y1="154.2" y2="154.2" stroke="#64748b66" stroke-width="1"/><text x="52" y="158.2" text-anchor="end" fill="currentColor" font-size="11">0.36</text><line x1="60" x2="740" y1="108.80000000000001" y2="108.80000000000001" stroke="#64748b66" stroke-width="1"/><text x="52" y="112.80000000000001" text-anchor="end" fill="currentColor" font-size="11">0.54</text><line x1="60" x2="740" y1="63.400000000000006" y2="63.400000000000006" stroke="#64748b66" stroke-width="1"/><text x="52" y="67.4" text-anchor="end" fill="currentColor" font-size="11">0.72</text><line x1="60" x2="740" y1="18" y2="18" stroke="#64748b66" stroke-width="1"/><text x="52" y="22" text-anchor="end" fill="currentColor" font-size="11">0.89</text><rect x="117" y="48.48181979057023" width="26" height="196.51818020942977" fill="#60a5fa" style="cursor: crosshair;"/><line x1="130" x2="130" y1="43.711844627797575" y2="53.25179495334288" stroke="currentColor" stroke-opacity="0.78" stroke-width="2"/><line x1="125" x2="135" y1="43.711844627797575" y2="43.711844627797575" stroke="currentColor" stroke-opacity="0.78" stroke-width="2"/><line x1="125" x2="135" y1="53.25179495334288" y2="53.25179495334288" stroke="currentColor" stroke-opacity="0.78" stroke-width="2"/><rect x="147" y="63.05782958663525" width="26" height="181.94217041336475" fill="#f97316" style="cursor: crosshair;"/><line x1="160" x2="160" y1="60.09798060449245" y2="66.01767856877808" stroke="currentColor" stroke-opacity="0.78" stroke-width="2"/><line x1="155" x2="165" y1="60.09798060449245" y2="60.09798060449245" stroke="currentColor" stroke-opacity="0.78" stroke-width="2"/><line x1="155" x2="165" y1="66.01767856877808" y2="66.01767856877808" stroke="currentColor" stroke-opacity="0.78" stroke-width="2"/><text x="145" y="261" transform="rotate(-28 145 261)" text-anchor="end" fill="currentColor" font-size="11">extractor/llm=gpt_oss_20b_in_process</text><rect x="287" y="21.248963357053753" width="26" height="223.75103664294625" fill="#60a5fa" style="cursor: crosshair;"/><line x1="300" x2="300" y1="19.167175524057058" y2="23.33075119005042" stroke="currentColor" stroke-opacity="0.78" stroke-width="2"/><line x1="295" x2="305" y1="19.167175524057058" y2="19.167175524057058" stroke="currentColor" stroke-opacity="0.78" stroke-width="2"/><line x1="295" x2="305" y1="23.33075119005042" y2="23.33075119005042" stroke="currentColor" stroke-opacity="0.78" stroke-width="2"/><rect x="317" y="40.11729505625448" width="26" height="204.88270494374552" fill="#f97316" style="cursor: crosshair;"/><line x1="330" x2="330" y1="37.87985953480944" y2="42.35473057769951" stroke="currentColor" stroke-opacity="0.78" stroke-width="2"/><line x1="325" x2="335" y1="37.87985953480944" y2="37.87985953480944" stroke="currentColor" stroke-opacity="0.78" stroke-width="2"/><line x1="325" x2="335" y1="42.35473057769951" y2="42.35473057769951" stroke="currentColor" stroke-opacity="0.78" stroke-width="2"/><text x="315" y="261" transform="rotate(-28 315 261)" text-anchor="end" fill="currentColor" font-size="11">extractor/llm=mistral_small_3_24b_in_process</text><rect x="457" y="19.040893916498334" width="26" height="225.95910608350167" fill="#60a5fa" style="cursor: crosshair;"/><line x1="470" x2="470" y1="18" y2="20.081787832996696" stroke="currentColor" stroke-opacity="0.78" stroke-width="2"/><line x1="465" x2="475" y1="18" y2="18" stroke="currentColor" stroke-opacity="0.78" stroke-width="2"/><line x1="465" x2="475" y1="20.081787832996696" y2="20.081787832996696" stroke="currentColor" stroke-opacity="0.78" stroke-width="2"/><rect x="487" y="37.74413631173235" width="26" height="207.25586368826765" fill="#f97316" style="cursor: crosshair;"/><line x1="500" x2="500" y1="36.62541855100983" y2="38.86285407245484" stroke="currentColor" stroke-opacity="0.78" stroke-width="2"/><line x1="495" x2="505" y1="36.62541855100983" y2="36.62541855100983" stroke="currentColor" stroke-opacity="0.78" stroke-width="2"/><line x1="495" x2="505" y1="38.86285407245484" y2="38.86285407245484" stroke="currentColor" stroke-opacity="0.78" stroke-width="2"/><text x="485" y="261" transform="rotate(-28 485 261)" text-anchor="end" fill="currentColor" font-size="11">extractor/llm=gemma3_27b_in_process</text><rect x="627" y="38.913518881496856" width="26" height="206.08648111850314" fill="#60a5fa" style="cursor: crosshair;"/><line x1="640" x2="640" y1="36.15957243724225" y2="41.667465325751465" stroke="currentColor" stroke-opacity="0.78" stroke-width="2"/><line x1="635" x2="645" y1="36.15957243724225" y2="36.15957243724225" stroke="currentColor" stroke-opacity="0.78" stroke-width="2"/><line x1="635" x2="645" y1="41.667465325751465" y2="41.667465325751465" stroke="currentColor" stroke-opacity="0.78" stroke-width="2"/><rect x="657" y="48.81887711950236" width="26" height="196.18112288049764" fill="#f97316" style="cursor: crosshair;"/><line x1="670" x2="670" y1="46.581441598057324" y2="51.0563126409474" stroke="currentColor" stroke-opacity="0.78" stroke-width="2"/><line x1="665" x2="675" y1="46.581441598057324" y2="46.581441598057324" stroke="currentColor" stroke-opacity="0.78" stroke-width="2"/><line x1="665" x2="675" y1="51.0563126409474" y2="51.0563126409474" stroke="currentColor" stroke-opacity="0.78" stroke-width="2"/><text x="655" y="261" transform="rotate(-28 655 261)" text-anchor="end" fill="currentColor" font-size="11">extractor/llm=qwen3_30b_in_process</text></g></svg>