<?xml version="1.0" encoding="UTF-8"?>
<svg width="797" height="358" viewBox="0 0 797 358" xmlns="http://www.w3.org/2000/svg" xmlns:xlink="http://www.w3.org/1999/xlink" style="color: rgb(31, 41, 55); font-family: Inter, Arial, sans-serif; background-color: rgba(0, 0, 0, 0);"><rect x="0" y="0" width="797" height="358" fill="rgb(255, 255, 255)"/><g transform="translate(46.86024475097656, 0)"><line x1="60" x2="730" y1="225" y2="225" stroke="#64748b66" stroke-width="1"/><text x="52" y="229" text-anchor="end" fill="currentColor" font-size="11">0.00</text><line x1="60" x2="730" y1="183.6" y2="183.6" stroke="#64748b66" stroke-width="1"/><text x="52" y="187.6" text-anchor="end" fill="currentColor" font-size="11">70.00</text><line x1="60" x2="730" y1="142.2" y2="142.2" stroke="#64748b66" stroke-width="1"/><text x="52" y="146.2" text-anchor="end" fill="currentColor" font-size="11">140.00</text><line x1="60" x2="730" y1="100.80000000000001" y2="100.80000000000001" stroke="#64748b66" stroke-width="1"/><text x="52" y="104.80000000000001" text-anchor="end" fill="currentColor" font-size="11">210.00</text><line x1="60" x2="730" y1="59.39999999999998" y2="59.39999999999998" stroke="#64748b66" stroke-width="1"/><text x="52" y="63.39999999999998" text-anchor="end" fill="currentColor" font-size="11">280.00</text><line x1="60" x2="730" y1="18" y2="18" stroke="#64748b66" stroke-width="1"/><text x="52" y="22" text-anchor="end" fill="currentColor" font-size="11">350.00</text><rect x="97" y="206.86285714285714" width="60" height="18.13714285714286" fill="#60a5fa" style="cursor: crosshair;"/><line x1="127" x2="127" y1="205.38757508750055" y2="208.33813919821372" stroke="currentColor" stroke-opacity="0.78" stroke-width="2"/><line x1="121" x2="133" y1="205.38757508750055" y2="205.38757508750055" stroke="currentColor" stroke-opacity="0.78" stroke-width="2"/><line x1="121" x2="133" y1="208.33813919821372" y2="208.33813919821372" stroke="currentColor" stroke-opacity="0.78" stroke-width="2"/><text x="127" y="241" transform="rotate(-28 127 241)" text-anchor="end" fill="currentColor" font-size="11">extractor/llm=qwen3_30b_in_process</text><rect x="231" y="224.21142857142857" width="60" height="0.7885714285714286" fill="#60a5fa" style="cursor: crosshair;"/><line x1="261" x2="261" y1="223.4737875437503" y2="224.94906959910685" stroke="currentColor" stroke-opacity="0.78" stroke-width="2"/><line x1="255" x2="267" y1="223.4737875437503" y2="223.4737875437503" stroke="currentColor" stroke-opacity="0.78" stroke-width="2"/><line x1="255" x2="267" y1="224.94906959910685" y2="224.94906959910685" stroke="currentColor" stroke-opacity="0.78" stroke-width="2"/><text x="261" y="241" transform="rotate(-28 261 241)" text-anchor="end" fill="currentColor" font-size="11">extractor/llm=gpt_oss_20b_in_process</text><rect x="365" y="176.10857142857142" width="60" height="48.89142857142858" fill="#60a5fa" style="cursor: crosshair;"/><line x1="395" x2="395" y1="174.0981008774977" y2="178.11904197964515" stroke="currentColor" stroke-opacity="0.78" stroke-width="2"/><line x1="389" x2="401" y1="174.0981008774977" y2="174.0981008774977" stroke="currentColor" stroke-opacity="0.78" stroke-width="2"/><line x1="389" x2="401" y1="178.11904197964515" y2="178.11904197964515" stroke="currentColor" stroke-opacity="0.78" stroke-width="2"/><text x="395" y="241" transform="rotate(-28 395 241)" text-anchor="end" fill="currentColor" font-size="11">extractor/llm=mistral_small_3_24b_in_process</text><rect x="499" y="207.84857142857143" width="60" height="17.15142857142857" fill="#60a5fa" style="cursor: crosshair;"/><line x1="529" x2="529" y1="206.88277261570263" y2="208.81437024144023" stroke="currentColor" stroke-opacity="0.78" stroke-width="2"/><line x1="523" x2="535" y1="206.88277261570263" y2="206.88277261570263" stroke="currentColor" stroke-opacity="0.78" stroke-width="2"/><line x1="523" x2="535" y1="208.81437024144023" y2="208.81437024144023" stroke="currentColor" stroke-opacity="0.78" stroke-width="2"/><text x="529" y="241" transform="rotate(-28 529 241)" text-anchor="end" fill="currentColor" font-size="11">extractor/llm=gemma3_27b_in_process</text><rect x="633" y="22.140000000000015" width="60" height="202.85999999999999" fill="#60a5fa" style="cursor: crosshair;"/><line x1="663" x2="663" y1="18" y2="26.28" stroke="currentColor" stroke-opacity="0.78" stroke-width="2"/><line x1="657" x2="669" y1="18" y2="18" stroke="currentColor" stroke-opacity="0.78" stroke-width="2"/><line x1="657" x2="669" y1="26.28" y2="26.28" stroke="currentColor" stroke-opacity="0.78" stroke-width="2"/><text x="663" y="241" transform="rotate(-28 663 241)" text-anchor="end" fill="currentColor" font-size="11">extractor/llm=gpt_5</text></g></svg>