<?xml version="1.0" encoding="UTF-8"?>
<svg width="760" height="340" viewBox="0 0 760 340" xmlns="http://www.w3.org/2000/svg" xmlns:xlink="http://www.w3.org/1999/xlink" style="color: rgb(31, 41, 55); font-family: Inter, Arial, sans-serif; background-color: rgba(0, 0, 0, 0);"><rect x="0" y="0" width="760" height="340" fill="rgb(255, 255, 255)"/><g transform="translate(0, 0)"><line x1="60" x2="740" y1="245" y2="245" stroke="#64748b66" stroke-width="1"/><text x="52" y="249" text-anchor="end" fill="currentColor" font-size="11">0.00</text><line x1="60" x2="740" y1="199.6" y2="199.6" stroke="#64748b66" stroke-width="1"/><text x="52" y="203.6" text-anchor="end" fill="currentColor" font-size="11">0.05</text><line x1="60" x2="740" y1="154.2" y2="154.2" stroke="#64748b66" stroke-width="1"/><text x="52" y="158.2" text-anchor="end" fill="currentColor" font-size="11">0.11</text><line x1="60" x2="740" y1="108.79999999999998" y2="108.79999999999998" stroke="#64748b66" stroke-width="1"/><text x="52" y="112.79999999999998" text-anchor="end" fill="currentColor" font-size="11">0.16</text><line x1="60" x2="740" y1="63.39999999999998" y2="63.39999999999998" stroke="#64748b66" stroke-width="1"/><text x="52" y="67.39999999999998" text-anchor="end" fill="currentColor" font-size="11">0.21</text><line x1="60" x2="740" y1="18" y2="18" stroke="#64748b66" stroke-width="1"/><text x="52" y="22" text-anchor="end" fill="currentColor" font-size="11">0.26</text><rect x="342" y="36.85108945659002" width="26" height="208.14891054340998" fill="#60a5fa" style="cursor: crosshair;"/><line x1="355" x2="355" y1="18" y2="55.70217891317998" stroke="currentColor" stroke-opacity="0.78" stroke-width="2"/><line x1="350" x2="360" y1="18" y2="18" stroke="currentColor" stroke-opacity="0.78" stroke-width="2"/><line x1="350" x2="360" y1="55.70217891317998" y2="55.70217891317998" stroke="currentColor" stroke-opacity="0.78" stroke-width="2"/><rect x="372" y="66.58664810564858" width="26" height="178.41335189435142" fill="#f97316" style="cursor: crosshair;"/><line x1="385" x2="385" y1="53.29641051069356" y2="79.87688570060362" stroke="currentColor" stroke-opacity="0.78" stroke-width="2"/><line x1="380" x2="390" y1="53.29641051069356" y2="53.29641051069356" stroke="currentColor" stroke-opacity="0.78" stroke-width="2"/><line x1="380" x2="390" y1="79.87688570060362" y2="79.87688570060362" stroke="currentColor" stroke-opacity="0.78" stroke-width="2"/><rect x="402" y="191.68106724996395" width="26" height="53.31893275003606" fill="#22c55e" style="cursor: crosshair;"/><line x1="415" x2="415" y1="186.45271573964902" y2="196.90941876027887" stroke="currentColor" stroke-opacity="0.78" stroke-width="2"/><line x1="410" x2="420" y1="186.45271573964902" y2="186.45271573964902" stroke="currentColor" stroke-opacity="0.78" stroke-width="2"/><line x1="410" x2="420" y1="196.90941876027887" y2="196.90941876027887" stroke="currentColor" stroke-opacity="0.78" stroke-width="2"/><rect x="432" y="67.61201219699544" width="26" height="177.38798780300456" fill="#a78bfa" style="cursor: crosshair;"/><line x1="445" x2="445" y1="52.265767690912696" y2="82.95825670307812" stroke="currentColor" stroke-opacity="0.78" stroke-width="2"/><line x1="440" x2="450" y1="52.265767690912696" y2="52.265767690912696" stroke="currentColor" stroke-opacity="0.78" stroke-width="2"/><line x1="440" x2="450" y1="82.95825670307812" y2="82.95825670307812" stroke="currentColor" stroke-opacity="0.78" stroke-width="2"/><text x="400" y="261" transform="rotate(-28 400 261)" text-anchor="end" fill="currentColor" font-size="11">all</text></g></svg>